<?xml version="1.0" encoding="UTF-8" standalone="no"?>
<!-- Created with Inkscape (http://www.inkscape.org/) -->

<svg
   width="110mm"
   height="110mm"
   viewBox="0 0 110 110"
   version="1.1"
   id="svg1"
   xml:space="preserve"
   inkscape:version="1.4 (86a8ad7, 2024-10-11)"
   sodipodi:docname="Rsequoia2_logo.svg"
   inkscape:export-filename="Rsequoia2_logo.png"
   inkscape:export-xdpi="300"
   inkscape:export-ydpi="300"
   xmlns:inkscape="http://www.inkscape.org/namespaces/inkscape"
   xmlns:sodipodi="http://sodipodi.sourceforge.net/DTD/sodipodi-0.dtd"
   xmlns="http://www.w3.org/2000/svg"
   xmlns:svg="http://www.w3.org/2000/svg"><sodipodi:namedview
     id="namedview1"
     pagecolor="#ffffff"
     bordercolor="#666666"
     borderopacity="1.0"
     inkscape:showpageshadow="2"
     inkscape:pageopacity="0.0"
     inkscape:pagecheckerboard="0"
     inkscape:deskcolor="#d1d1d1"
     inkscape:document-units="mm"
     showguides="true"
     inkscape:zoom="0.866859"
     inkscape:cx="159.77223"
     inkscape:cy="230.14123"
     inkscape:window-width="1920"
     inkscape:window-height="1009"
     inkscape:window-x="-8"
     inkscape:window-y="-8"
     inkscape:window-maximized="1"
     inkscape:current-layer="layer1" /><defs
     id="defs1" /><g
     inkscape:label="Calque 1"
     inkscape:groupmode="layer"
     id="layer1"
     style="display:inline"><path
       sodipodi:type="star"
       style="display:inline;fill:#ffffff;stroke:#008080;stroke-width:0.735895;stroke-miterlimit:3.3;stroke-opacity:1;paint-order:fill markers stroke"
       id="path3-9"
       inkscape:flatsided="true"
       sodipodi:sides="6"
       sodipodi:cx="34.951614"
       sodipodi:cy="43.467743"
       sodipodi:r1="37.571453"
       sodipodi:r2="32.537834"
       sodipodi:arg1="0.72860312"
       sodipodi:arg2="1.2522019"
       inkscape:rounded="0"
       inkscape:randomized="0"
       d="M 62.983871,68.483871 27.303141,80.252454 -0.7291164,55.236326 6.9193574,18.451615 42.600088,6.6830323 70.632345,31.69916 Z"
       transform="matrix(0.87008308,0.98179808,-0.97496862,0.87618995,66.95859,-17.401427)" /><g
       id="g5"
       transform="matrix(0.30166597,0,0,0.30166597,-148.04825,189.85399)"
       style="stroke-width:3.31493"><path
         id="path5-6-5"
         style="fill:#008080;stroke-width:3.31493"
         d="m 689.3202,-554.45246 c -1.62002,-0.008 -3.32228,0.008 -5.12682,0.0455 -10.46753,0.21966 -12.9788,0.47074 -19.23293,1.92237 -3.95642,0.91833 -9.09896,2.34652 -11.42773,3.17345 -6.76397,2.40188 -17.03767,7.56922 -23.1991,11.66853 -2.11517,1.40727 -4.83257,3.60806 -7.69256,6.11643 0.003,0.11355 0.0109,0.22696 0.0134,0.34055 0.1828,1.67928 1.32392,3.22516 0.8692,4.96507 1.67974,0.14653 3.36099,0.23749 5.04465,0.32039 0.55345,0.89308 1.21907,1.65712 1.81229,2.50941 0.65516,-0.21247 1.31267,-0.41688 1.96319,-0.64286 1.37088,-0.64934 2.73293,0.35721 3.76825,1.17409 1.1725,1.10183 2.63559,1.6544 3.77651,2.70423 0.4843,0.57194 0.92483,1.32428 1.76527,1.39888 0.93646,-0.0545 1.92749,0.45502 2.17351,1.41438 0.075,1.35037 0.78108,2.59119 1.79472,3.47008 1.00206,0.67349 1.52602,1.9066 1.341,3.09903 -0.41739,1.73299 -0.88114,3.71531 -2.41587,4.81418 -1.44899,0.46738 -2.49259,1.72126 -3.96151,2.14819 -0.0979,1.06106 -0.19228,2.1226 -0.28888,3.18378 -1.20403,0.16384 -2.33077,0.66419 -3.49797,0.98237 1.47218,0.63604 2.93993,1.2832 4.36924,2.01177 2.82721,0.50767 5.66041,1.1137 8.37985,2.0717 1.13596,0.0862 2.21527,0.95297 2.33112,2.12752 -0.13548,0.82503 0.38682,1.52505 0.81649,2.17765 0.81611,1.52161 1.31064,3.43982 0.6289,5.10408 -0.58139,0.60947 -0.6532,1.57097 -0.23978,2.30012 0.97801,1.43971 0.24111,3.35258 -0.9772,4.39249 0.77439,0.83757 1.27565,1.87171 1.6583,2.93574 0.71815,0.14731 1.26201,0.71887 1.4919,1.39837 0.0682,0.8393 0.6677,1.44211 1.01337,2.17196 0.38543,1.26505 -0.29765,2.60196 -1.05988,3.59358 -0.77057,0.80544 -1.62296,2.06259 -2.90628,1.76991 -0.77613,-0.4812 -2.01808,0.0863 -1.87327,1.06816 0.29466,0.62361 0.47133,1.38711 0.0331,2.00556 -0.37807,0.91316 -1.64019,0.70684 -2.0469,1.56063 -0.22099,1.35693 -1.79189,1.694 -2.60553,2.61534 -0.69737,1.04092 -2.01599,1.15932 -3.14089,1.36374 -0.76207,0.0313 -1.35113,0.50565 -1.80609,1.08159 -0.51693,0.74489 -1.34594,1.06167 -2.12804,1.43092 -0.48791,0.13804 -1.09312,0.72898 -0.62012,1.18442 1.12595,0.69557 2.58199,0.27915 3.81476,0.66818 0.51371,0.3886 1.1997,0.31775 1.73426,-0.004 0.98199,1.86533 1.98404,3.72321 2.9161,5.61309 -0.44599,0.54021 -0.93119,1.36856 -0.36742,2.00763 0.82318,0.63548 1.77424,1.14077 2.7187,1.59422 1.55246,0.8038 3.34183,0.79386 4.96507,1.36064 1.19242,0.9776 1.73315,2.53573 2.7311,3.69693 1.51187,1.56349 3.40024,2.71916 4.98367,4.2137 -3.32119,0.66075 -6.66673,1.1903 -9.99629,1.8066 0.66846,0.73322 1.33743,1.46631 2.00608,2.19935 -0.72554,1.32869 -1.46556,2.65048 -2.18384,3.97857 -1.26817,-0.24136 -2.49537,-0.65515 -3.75585,-0.93173 -0.98471,0.88595 -2.28137,1.30985 -3.58014,1.44126 -0.13132,0.53484 -0.25223,1.11784 -0.67541,1.50792 -1.3382,0.76442 -3.0281,0.8991 -4.50205,0.4625 -1.58012,-0.18532 -2.79138,-1.41995 -3.43752,-2.80603 -1.14992,0.0471 -2.18656,0.58133 -3.13986,1.18133 -0.85917,0.70674 -2.00924,0.33748 -2.88561,-0.12299 -0.86118,-0.54143 -2.04575,-0.56385 -2.62671,-1.50792 -0.68649,-0.81349 0.0319,-2.02924 -0.77825,-2.79156 -0.67732,-0.48043 -1.44947,-0.91632 -1.82159,-1.71204 -0.44864,-0.66662 -0.29926,-1.4719 -0.36536,-2.21124 -0.28004,-0.97883 -1.55684,-0.99971 -2.29495,-0.54467 0.0495,8.58373 0.0996,17.16716 0.14935,25.75089 0.21192,11.22361 0.81027,22.43475 1.36736,33.646 2.06796,1.82196 3.96237,3.36779 5.45548,4.41265 7.1734,5.0199 15.08174,9.08252 23.55463,12.18066 2.13183,0.25393 4.26353,0.51015 6.38049,0.84284 1.3393,0.12845 3.05076,0.45515 3.54966,1.90324 0.0348,0.12663 0.041,0.24578 0.0434,0.3638 2.71572,0.71205 5.46309,1.36332 8.27288,1.88516 3.59606,0.66681 8.15468,0.84142 18.04386,0.6873 11.61994,-0.18122 14.00472,-0.39124 19.57607,-1.72341 16.13267,-3.85749 29.35755,-10.26689 41.84551,-20.21686 -0.0501,0.003 -0.0997,0.009 -0.14986,0.0109 -4.36086,0.35481 -8.88195,-1.64633 -11.36003,-5.28805 -2.58494,-3.5835 -2.85326,-8.35898 -1.71101,-12.51552 1.65739,-6.05471 6.01757,-10.96518 10.90476,-14.7128 5.50512,-4.29306 12.06301,-7.66266 19.13992,-8.06462 2.78949,-0.12553 5.62125,0.11914 8.27029,1.04645 1.28296,0.42264 2.51072,1.00049 3.66386,1.70119 3.06616,-6.96443 5.38058,-14.22001 6.73551,-21.48345 1.55534,-8.33801 1.58392,-29.41761 0.0506,-37.29023 -3.85478,-19.79291 -13.59643,-38.12153 -27.80915,-52.32187 -11.22254,-11.21274 -24.38683,-19.36717 -39.29115,-24.33805 -10.27989,-3.42853 -17.59814,-4.69021 -28.93828,-4.74906 z m -0.74931,49.89773 c 3.03458,-8e-5 5.54993,0.27947 8.18968,0.83871 8.75626,1.85498 15.30899,6.35243 18.40456,12.63127 1.31378,2.66503 1.48232,3.79435 1.48932,9.92394 0.006,6.25306 -0.1478,7.24679 -1.60507,10.35596 -2.28187,4.86851 -6.45196,9.07976 -11.48199,11.59619 -2.3152,1.15824 -4.60152,2.10581 -5.08083,2.10581 -0.47938,0 -0.78152,0.25148 -0.67127,0.55862 0.11025,0.30713 5.34305,8.14845 11.62823,17.4253 l 11.42772,16.86718 5.59088,0.016 5.59087,0.0155 -0.17777,4.06021 -0.17776,4.0597 -8.16488,0.1664 -8.16488,0.16692 -13.7883,-20.75119 -13.78779,-20.75067 -7.36803,-0.016 -7.36802,-0.016 v 16.54007 16.54008 h 7.24503 7.24504 l -0.17777,4.0597 -0.17828,4.06229 -17.89297,0.15916 -17.89348,0.15968 v -4.21938 -4.21887 h 6.01927 6.01927 l -0.15502,-36.53575 -0.15503,-36.53524 -5.71387,-0.6966 c -3.14261,-0.38321 -5.78144,-0.72319 -5.86424,-0.75499 -0.0826,-0.032 -0.15038,-1.76653 -0.15038,-3.85454 v -3.79615 l 4.36046,0.76532 c 5.80647,1.01907 12.38912,0.99147 21.50205,-0.0894 4.71654,-0.55942 8.27068,-0.83914 11.30525,-0.83922 z m 0.88625,8.50594 c -1.85321,-0.0629 -3.9326,-0.0336 -6.29626,0.0775 -4.5317,0.21307 -8.65903,0.54832 -9.17205,0.74518 -0.80999,0.31086 -0.93275,2.44529 -0.93275,16.23208 v 15.87448 h 6.94169 c 11.86324,0 19.50029,-2.27964 23.88071,-7.12824 5.55876,-6.15289 4.37207,-17.85265 -2.27944,-22.4715 -3.05805,-2.1235 -6.58227,-3.14097 -12.1419,-3.32951 z m 74.29676,87.29079 c -2.07089,0.0135 -4.05375,0.88323 -5.65909,2.15439 -3.42441,2.72765 -5.18906,6.98413 -6.14123,11.14764 -0.49418,2.53054 -0.92044,5.1887 -0.32762,7.74113 0.0246,1.06572 1.34573,1.52099 2.17867,1.0201 2.3984,-1.42822 3.69442,-4.05027 4.93097,-6.43992 1.19298,-1.99626 4.4089,-2.59726 5.97741,-0.72554 0.44638,0.46601 0.63465,1.03782 0.74931,1.6366 0.71782,-0.92386 1.42154,-1.86105 2.11047,-2.81482 0.092,-0.47299 0.17637,-0.9467 0.25838,-1.41852 0.39288,-3.09413 0.76782,-6.38466 -0.4098,-9.36118 -0.50818,-1.58558 -1.93902,-2.93944 -3.66747,-2.93988 z" /><text
         id="text5000-2-2"
         y="-354.45462"
         x="732.38916"
         style="font-style:normal;font-variant:normal;font-weight:bold;font-stretch:normal;font-size:112.604px;line-height:1.25;font-family:'Bell MT';-inkscape-font-specification:'Bell MT, Bold';font-variant-ligatures:normal;font-variant-caps:normal;font-variant-numeric:normal;font-feature-settings:normal;text-align:start;letter-spacing:0px;word-spacing:0px;writing-mode:lr-tb;text-anchor:start;fill:#ff6600;fill-opacity:1;stroke:none;stroke-width:2.27008"
         xml:space="preserve"
         inkscape:export-xdpi="25.4"
         inkscape:export-ydpi="25.4"
         inkscape:export-filename="C:\Users\Matthieu\rect5002.png"><tspan
           style="font-style:normal;font-variant:normal;font-weight:bold;font-stretch:normal;font-size:112.604px;font-family:'Bell MT';-inkscape-font-specification:'Bell MT, Bold';font-variant-ligatures:normal;font-variant-caps:normal;font-variant-numeric:normal;font-feature-settings:normal;text-align:start;writing-mode:lr-tb;text-anchor:start;fill:#ff6600;fill-opacity:1;stroke-width:2.27008"
           y="-354.45462"
           x="732.38916"
           id="tspan4998-3-8"
           sodipodi:role="line">2</tspan></text><path
         id="path4932-4-2-3-8"
         style="fill:#ff6600;fill-opacity:1;stroke:#ffffff;stroke-width:0;stroke-linecap:butt;stroke-linejoin:miter;stroke-miterlimit:4;stroke-dasharray:none;stroke-opacity:1"
         d="m 612.57004,-554.39843 -3.12039,0.7793 -2.45134,0.4461 -1.6717,2.1159 -0.20264,0.7651 -1.10562,0.9626 -0.14698,-0.1277 -1.89108,-0.1972 -1.45814,0.9849 -0.90588,1.7721 -1.22131,0.7881 0.0833,0.1094 -0.62539,0.2638 c 0,0 -0.5501,1.1398 -0.88442,1.6968 -0.33433,0.557 -0.55736,1.3362 -0.55736,1.3362 l -0.78073,0.6687 c 0,0 -0.77953,0.3344 -1.22531,0.3344 h -1.56038 c 0,0 -2.11726,0.1112 -2.56302,0.2226 -0.44579,0.1114 -1.67148,0.8912 -2.2287,1.2253 -0.55723,0.3341 -1.00377,1.7825 -1.33809,2.6737 -0.33434,0.891 -0.44567,1.2252 -1.11435,2.0049 -0.66865,0.7797 -0.55719,1.3366 -0.66868,2.005 -0.11145,0.6683 0.89133,1.448 0.89133,1.448 l 1.0034,1.3362 1.22639,2.2276 v 1.56 c 0,0 -1.56074,1.3367 -1.56074,2.005 -10e-6,0.6682 0.33435,1.5595 0.33435,1.5595 l 1.67169,1.1137 1.67134,0.8913 c 0,0 0.3347,0.7794 0.3347,1.3363 0,0.557 0.44603,1.4483 0.44603,1.4483 l 1.44905,-0.2226 h 1.62187 v 1.4195 l 1.41848,2.363 0.63047,1.5753 2.36404,0.6301 1.41849,-1.7327 2.2065,0.4725 1.73355,1.1026 0.36781,0.026 c -0.12684,0.076 -0.20508,0.1221 -0.31615,0.1885 -0.97412,0.5828 -3.05273,1.7984 -3.05273,1.7984 l -0.56098,0.4583 -0.9932,-1.5149 -1.33953,-0.078 -1.57604,0.2361 -3.86145,-0.2361 -2.20651,2.1265 h -2.28544 l -2.75804,1.8118 c 0,0 -2.36403,0.7873 -2.36403,1.2598 0,0.4726 0.94554,2.1268 0.94554,2.1268 l 1.33955,0.6301 -0.0786,2.599 -0.15752,1.7329 -1.41849,1.0242 -1.41849,-0.6302 -2.2065,0.7877 -1.49744,1.6539 -1.8125,-0.078 -1.73355,1.1026 -3.23098,2.5991 0.70906,1.1816 -0.63011,1.8904 1.18201,1.4178 2.44261,1.5753 c 0,0 1.41871,0.2362 1.33991,0.6301 -0.0581,0.2905 -0.10521,0.8464 -0.1317,1.1812 h -1.60185 l -0.55153,0.1575 c 0,0 -2.75885,-0.2359 -2.99525,-0.6297 -0.23642,-0.3938 -1.26024,-1.4182 -1.26024,-1.4182 l -1.3399,1.0239 -1.18202,1.497 -0.39365,1.6538 0.39365,2.6777 0.70943,1.5757 -0.23285,0.7985 -1.06231,-0.6221 -0.64904,-1.1823 -1.94711,0.5915 -1.8667,1.0139 -1.78484,-1.0986 -1.9471,1.0139 -2.51575,0.2535 -0.64904,-1.2674 -1.62222,0.5919 c 0,0 -1.13613,1.6049 -1.46069,1.6894 -0.32457,0.084 -0.9739,1.0984 -1.05504,1.4364 -0.0811,0.3379 -0.40527,1.3513 -0.7298,1.6048 -0.19428,0.1516 -0.43585,0.5428 -0.6072,0.9251 -0.38415,-0.1782 -0.70426,-0.3572 -0.81239,-0.5013 -0.33432,-0.4456 -1.44869,0.167 -1.44869,0.167 l -1.17073,1.114 -2.56304,0.5013 -1.44904,0.2779 -0.39001,0.7805 -0.50169,1.8379 -1.28133,1.4479 c 0,0 -0.0557,1.1692 -0.0557,1.3919 v 1.7824 c 0,0.2784 -1.22603,0.446 -1.22603,0.446 l -0.4453,1.5036 c 0,0 -0.55735,0.8352 -0.89169,1.1136 -0.33433,0.2786 2.22869,0.7797 2.22869,0.7797 v 0.891 l 1.67133,0.6134 2.00604,0.1106 1.7834,-0.6123 1.22604,-0.2227 1.05905,0.7796 c 0,0 0.39,1.1694 0.72433,1.5037 0.33435,0.3342 1.22567,-0.5572 1.28134,-0.8914 0.0558,-0.3341 2.84207,-0.8349 2.84207,-0.8349 l 2.06171,-0.7804 0.22265,-1.0019 1.44869,-0.724 1.33809,0.557 1.50398,0.9467 1.727,0.2786 0.33471,-1.3927 2.22869,0.5013 3.00907,-0.8356 c 0,0 1.56019,-0.7791 1.67169,-1.0019 0.11145,-0.2228 0.5017,-0.8914 0.5017,-0.8914 l -0.78,-0.8356 -1.41522,-1.6976 3.5726,0.4999 5.99484,-0.1022 4.66258,-0.7178 1.94747,-1.2285 3.79161,0.1538 5.43131,-1.5367 2.86936,0.1026 1.94711,-0.7167 4.20127,-0.9736 0.56607,-0.2972 2.23853,-1.2351 2.52155,-2.9538 0.51225,-1.536 -0.0786,1.7724 -2.56121,3.1113 -2.73293,1.917 -0.29032,3.1087 -0.20665,0.3041 -3.11566,2.3179 -7.2467,2.7518 -5.28942,1.0144 -1.67971,0.7919 -1.01102,-0.8844 0.31543,-1.5757 -1.9704,-1.4962 h -1.65456 l -0.86732,-0.078 -1.10308,-0.158 -0.39401,-0.8666 -1.65496,0.3154 -1.33918,0.3155 -0.31542,0.4719 v 1.0244 l -0.70943,0.4718 h -0.55155 l -1.33954,0.079 -0.31542,0.6297 -0.394,0.7092 h -1.33918 l -0.47332,-0.5512 -0.94554,0.7087 -0.70943,0.709 -0.70906,0.5516 0.23611,1.2602 0.39473,1.3388 -1.10342,-0.078 -0.78838,-0.3937 0.15753,-1.0242 -0.78765,-0.2361 -0.31542,0.8659 -1.18202,-0.078 v -0.473 l -0.31543,-1.1027 h -1.57637 l -0.78765,0.8666 -0.63012,1.182 0.47223,0.9452 0.0793,0.9448 -0.63084,0.1579 -1.41776,-0.4729 -0.78874,0.5512 0.2361,1.1026 0.47332,0.7873 0.70944,0.3947 -0.0793,0.9448 0.78837,0.6298 h 1.33955 l 1.33954,0.473 1.18711,-0.2559 -0.16225,0.6499 1.18164,1.0233 0.70943,-1.2595 1.6546,-0.6308 0.78874,0.7091 -0.94627,0.8665 0.47296,0.5517 0.78801,-0.5517 1.26095,0.2361 -0.63011,1.0245 0.86622,0.7873 0.86696,-0.6304 0.55154,0.1575 -0.31542,1.0241 0.78873,0.5516 1.26096,0.078 0.1568,-1.417 h 0.86732 l 0.23612,-0.709 1.4978,0.9451 -0.63085,0.8666 -0.15752,0.9452 1.10306,0.7087 1.34027,-1.9693 0.63012,-1.0242 -0.70942,-0.2361 1.30534,-1.1343 -0.20191,0.7407 0.86695,0.2361 0.15753,0.9452 0.70943,1.0241 0.86623,0.078 0.78874,-0.1575 0.70943,0.6304 1.49707,-0.5511 1.57566,-0.5515 0.86696,-0.5512 -0.31543,-1.1027 -1.02412,-0.6305 v -0.748 l 1.49743,-0.4333 0.86696,0.9453 0.39401,-0.3156 0.47222,-1.4962 0.78874,0.3936 0.47222,-0.708 -0.78801,-1.1821 0.70943,-0.8665 0.78801,1.1821 1.10307,0.6297 0.23611,-0.7091 v -1.1027 l 1.65497,-0.5515 -0.55153,-0.8655 -1.18166,-0.158 -0.55189,-1.1026 1.57565,0.078 -0.1568,-1.6543 -2.44334,0.6309 -0.78801,-0.2369 -0.47295,0.473 0.15752,0.7087 -1.69352,0.6552 0.0167,-0.2808 2.21523,-2.8632 5.57938,-1.4124 3.63445,-0.3656 -1.76447,2.096 -3.17315,1.3537 -0.40164,2.046 3.95533,-3.0225 2.08062,-2.5433 0.34271,-0.035 1.74337,-0.859 -0.1015,1.2729 -0.0385,0.4835 -2.12647,6.1707 -4.50904,5.2239 -3.68939,3.943 -2.66381,1.9467 -3.02362,1.1769 -1.33226,1.0758 -1.04996,0.2303 -2.02968,0.9463 -1.94493,-1.2498 -2.83698,1.3389 0.47296,1.1816 -1.26097,1.1814 -1.41849,-0.1576 -0.8666,0.9452 -0.0789,1.5753 -1.02447,0.3939 -1.73355,-0.2364 -1.02449,1.1026 -0.31543,1.1817 1.26097,0.8662 -0.15754,1.1028 -1.81249,0.2364 0.15753,1.3389 1.57601,0.2364 1.10344,1.6539 -0.31543,1.0241 -1.18201,-0.2364 -1.18201,2.4415 0.63047,1.9693 -0.788,1.5753 2.52156,1.4963 1.3399,-0.2361 1.33954,1.5753 2.36404,-0.315 1.41848,-1.5753 1.4185,1.2602 1.41848,-0.3151 0.23649,1.969 1.33954,-0.078 1.33991,-1.6543 -0.63048,-2.0478 2.6005,-1.5754 1.89108,-0.2361 0.86695,-2.0479 1.65498,0.3151 1.02447,0.9452 1.73356,-2.8355 -1.26096,-1.7329 -1.57602,-0.7876 1.97003,-3.3867 -0.80657,-0.7058 0.32888,-0.7862 0.8204,-4.4552 1.07614,-2.0483 4.7648,-7.1703 3.17605,-3.8233 -0.002,0.024 2.82752,-3.4874 2.32473,-4.1747 -1.85215,4.2925 -3.42817,4.9671 -0.57954,7.2438 c -0.47182,1.631 -1.08204,3.5608 -1.64661,4.7903 -1.3662,2.9751 -3.87634,5.3427 -5.17481,8.3479 -0.21025,0.4865 -0.70935,1.0992 -0.41002,1.5367 0.26189,0.3829 1.38321,0.1536 1.38321,0.1536 l 5.28795,-7.8273 -0.003,0.038 3.23172,-4.4221 0.70943,-1.1027 0.11823,-2.9534 v -1.3392 l 0.43294,1.7721 -0.11787,2.8356 -3.23099,5.2774 -1.26606,1.4676 -0.57227,7.1506 -1.8838,26.2184 -1.53637,28.719 -0.63776,3.004 -0.92916,2.1188 -1.68007,1.3577 -5.9963,1.8577 -24.00265,2.85 12.2196,0.3453 8.33669,-0.5291 9.75044,-2.4738 4.64948,-1.5964 2.47354,-4.4174 0.51225,-12.7744 0.7065,9.9742 -0.13352,3.1793 -2.10608,4.3504 -8.20535,3.9841 -9.87705,4.6542 5.54554,-1.3741 12.32657,-3.9103 3.63737,-3.2625 2.13591,-6.8789 -1.06268,7.2084 -4.58981,7.0452 8.1766,-8.1683 0.18445,-9.2145 0.20956,-10.5665 0.57445,10.6214 0.38855,8.4437 2.35784,4.2085 3.93641,2.6045 0.22302,1.9868 0.14589,1.3002 0.79274,-1.8721 1.21004,-1.4702 6.6395,2.646 -3.46237,-2.1854 -3.17714,-1.8437 -4.30058,-2.0585 -2.12138,-4.0725 0.0971,-7.804 0.0488,-7.7524 0.51298,7.7778 0.41911,7.2642 2.05916,3.6257 3.46964,1.7769 7.1041,3.5613 10.28597,2.3419 -1.43523,-1.4415 -14.57236,-5.5804 -2.78751,-1.3814 -1.41266,-2.5379 -1.01648,-12.9793 1.72154,9.1611 0.44967,3.6733 2.20395,2.0643 13.59445,5.4211 6.19384,2.248 4.77972,0.8223 -22.25273,-8.5191 -2.34002,-4.0208 -0.16808,-4.1546 1.09033,4.1587 3.31794,3.4281 19.55836,6.6661 19.16074,0.1022 -15.25852,-1.9456 -5.00928,-1.0646 -4.76736,-1.716 -8.3265,-2.5594 -2.50808,-1.3028 -2.1654,-2.785 -0.43511,-8.0318 -1.30425,-28.6801 -0.19755,-34.3279 2.50773,1.0441 1.56038,-0.6683 2.89737,-0.5571 c 0,0 0.55734,1.6712 0.22301,2.1168 -0.33434,0.4454 -0.55724,2.4502 -0.66868,2.8958 -0.11145,0.4456 1.78303,1.5597 1.78303,1.5597 l 1.6717,1.0023 -0.78001,2.0053 2.45172,1.1136 0.89169,-0.557 2.34038,-1.0023 2.45172,0.2227 1.44868,2.2279 2.11737,0.6683 1.11471,-0.223 -0.66869,-1.7819 1.33737,-0.223 3.0087,-0.2227 2.22905,-1.4479 3.00907,0.7796 0.66868,-1.2253 c 0,0 -1.67158,-1.7821 -2.11736,-2.1163 -0.44577,-0.3341 -0.55736,-1.7822 -0.55736,-1.7822 l 2.56339,-0.6684 5.79511,-1.0026 -1.33735,-1.0024 -2.5634,-3.7872 -4.01209,-0.8913 -2.89737,-1.5593 -1.22604,-0.7796 -1.22603,1.3366 -0.33434,-1.8937 v -1.7823 l 1.00301,-1.4479 -1.33736,-2.5619 -0.89133,0.4453 -0.66868,-1.3367 -4.59018,-0.2084 -0.028,-1.0264 -3.0509,-2.1159 -0.24339,-0.5478 -1.92638,-1.3905 -0.16298,-0.3911 -0.5126,-2.4583 -0.93863,-2.4739 0.72252,0.026 1.56038,0.9467 c 0,0 1.44909,0.9469 1.50471,1.1696 0.0557,0.2228 1.11435,1.3367 1.11435,1.3367 0,0 1.56033,0.78 1.95038,0.8913 0.39006,0.1114 2.28436,0 2.28436,0 l 1.17037,-1.3926 c 0,0 1.28139,-0.7241 1.56002,-0.7241 0.27861,0 2.17339,-0.3339 2.17339,-0.3339 l 1.17,-1.2253 1.33737,-0.7797 0.11168,-1.337 0.68251,-0.6064 0.71016,-0.1066 -0.51334,-0.069 0.12333,-0.1094 -0.22264,-1.114 -0.0557,-1.281 1.05869,-0.6683 v -0.8909 l 1.33735,-1.0584 1.05869,-0.3896 1.95038,1.2249 1.00302,-0.8353 0.72435,-1.615 -0.83567,-0.8913 -0.22302,-1.3923 -1.44869,-0.3899 -0.0127,-1.0864 -0.63049,-1.2602 -1.57602,0.63 -1.41848,-1.1026 0.78801,-1.7329 1.57601,-1.4174 0.94554,-1.2602 -0.47295,-1.4178 -0.78801,-1.8903 -0.94554,-0.1575 0.78801,-1.2603 1.41849,-0.315 v -1.7329 l -0.78801,-1.7327 -1.10307,-1.2603 0.15753,-1.4178 -3.94041,-1.2602 -2.67908,-0.6301 -2.04898,-0.1576 -2.52193,-1.2602 -1.73354,1.1027 -1.56875,1.2061 -1.0314,-2.6028 -0.87095,-2.6121 -0.183,-0.4737 0.84222,-0.3739 0.22301,-1.4481 1.44869,-0.2229 1.22603,-0.2227 1.44869,-0.2227 0.11133,-1.2253 -1.56002,-0.7796 1.44869,-1.114 -0.22301,-0.8912 1.11471,-0.8911 1.44868,1.2254 1.33737,-1.0027 1.56037,-0.6683 1.00266,-1.8937 0.33434,-1.8936 -1.67134,-1.6706 -1.00301,-1.5596 -0.44604,-1.782 -1.44869,-0.223 -1.00301,0.1113 -0.8917,-2.0049 -1.22567,-0.6683 -2.22907,-1.6706 -1.56001,-1.1141 -1.89471,0.6683 -2.45171,0.4458 -0.44603,-1.1141 -1.22567,-1.6709 -2.11736,-0.1113 -0.33435,1.6709 -0.51879,1.5554 -2.99197,-0.7237 -2.51791,-0.9266 -1.15438,-1.0634 1.55202,-0.5818 0.47294,-0.709 1.14273,-0.5119 0.35435,-1.2995 0.19719,-0.5119 -0.15753,-1.221 -0.35471,-0.6301 -0.31507,-0.8269 -0.8746,-0.2652 0.73927,-0.4617 v -1.7823 l -0.22302,-1.448 -0.33434,-1.7822 0.78001,-0.4453 h 3.00942 c 0,0 0.66846,-0.4458 0.89134,-0.8914 0.22283,-0.4456 -0.11169,-1.6713 -0.11169,-1.6713 l -0.66795,-1.4473 v -1.2252 l 0.8906,-0.8914 -0.11096,-0.8913 v -2.3394 c 0,-0.4455 -0.22266,-1.5596 -0.22266,-1.5596 l -1.11506,-0.8902 -3.1204,-1.2257 c 0,0 -0.55698,-0.7797 -0.55698,-1.2253 0,-0.4455 -0.44567,-1.0027 -0.78001,-1.4484 -0.33433,-0.4454 -1.56038,-0.3339 -1.56038,-0.3339 l -2.34075,-0.8913 z m -3.85638,23.6647 0.24702,0.1939 -1.04777,0.8856 -0.43764,4.6513 -1.03432,-0.323 -0.22266,-1.8934 0.35946,-0.6675 0.0175,-0.013 c 0,0 0.33069,-0.3314 0.35837,-0.6839 l 0.0448,-0.083 -0.11206,-1.0027 0.0145,-0.073 1.07506,-0.5798 z m 4.30385,5.1876 0.21793,0.4605 1.13581,1.2628 3.99427,5.323 0.67232,1.3158 -0.14662,0.1467 -1.00302,1.2253 0.8917,0.4457 1.337,0.3341 0.0465,0.051 0.66214,1.2956 0.79819,1.1146 -0.21938,0.083 -1.31299,-0.3488 -0.70359,0.5373 -0.63305,0.3497 -0.77672,0.9554 -0.10188,0.5387 -0.34889,1.1791 -1.97911,-1.8481 -0.65048,-2.1385 -0.49478,-9.925 -1.30717,-1.7023 -0.21792,-0.6432 c 0.0455,0 0.0914,-0.01 0.13969,-0.013 z m 3.45803,0.74 c 0.30494,0.1696 0.63556,0.374 0.63556,0.374 l 0.51515,0.6861 z m 4.6331,3.9386 2.48808,0.5526 -3.03379,0.8269 -0.16881,0.5625 -0.93462,-1.763 z m 4.13504,6.6151 1.78303,0.5566 -0.44566,1.5597 -0.50532,0.8655 -0.14336,-0.2238 -0.30814,-0.6999 -2.11591,-0.9998 c -0.1694,-0.2342 -0.29715,-0.4046 -0.41985,-0.5758 l 0.59484,-0.1485 z m -12.59361,3.2299 0.47368,1.7543 0.91934,1.1417 1.16601,1.1172 2.7122,3.3074 2.9705,3.5486 1.55529,3.1091 -0.82949,-0.2262 -2.20614,-1.2603 -2.98068,-0.093 -1.19038,-7.7578 -2.36694,-2.6082 -0.27905,-0.7796 z m -7.50356,0.4617 -0.82729,1.5291 -0.55626,0.7247 -1.63969,1.7921 -1.84451,1.3829 -0.29069,0.2178 -0.10842,-0.9218 0.50133,-0.2688 2.56268,-2.3052 z m 1.90346,0.2626 -0.41803,1.225 -1.32243,2.371 -0.5046,4.2318 -0.17754,1.4738 -1.95731,0.4046 -0.25684,-0.068 0.2223,-0.888 0.30778,-3.9942 2.50663,-2.3387 v 8e-4 -8e-4 l 0.98702,-1.3876 z m -5.0293,0.1215 -1.8063,1.825 -0.10987,-0.2609 0.32488,-0.6087 z m 4.58364,2.5242 -0.49078,6.6948 -0.46313,0.05 0.34088,-5.9926 z m 19.5427,1.3079 c -9.9e-4,0.044 -0.005,0.083 -0.012,0.1121 -0.11148,0.4456 0.89168,1.0027 0.89168,1.0027 l 0.28196,0.1812 0.32197,0.4049 0.65231,7.1705 2.28253,3.6124 -1.38247,-0.2592 -0.94591,-2.3628 -3.15203,0.1574 -0.34708,-0.094 -0.36782,-1.0533 -1.52144,-5.1427 -2.57832,-3.688 c 0.23343,3e-4 1.03512,0.01 1.15037,0.078 0.1341,0.083 0.97173,0.6011 0.97173,0.6011 l 0.82949,-0.3671 1.30971,0.5784 0.61556,-0.5457 z m -15.6143,0.6691 0.61302,0.724 -0.0433,4.6069 c -0.18602,-0.1232 -0.41573,-0.2663 -0.65559,-0.3907 z m -8.97298,1.6699 -0.0662,3.0666 -0.67996,-1.0572 0.70943,-1.4968 -0.25394,-0.187 z m 27.83393,2.3564 0.53044,0.318 1.67169,0.7796 0.16081,0.054 0.49515,1.2555 1.74227,4.8139 0.42967,0.5053 -0.82767,0.5912 -1.89145,-0.315 -0.0774,-0.015 -1.8227,-4.1736 z m -40.055,13.7578 c 0.20437,0.1572 0.374,0.2575 0.374,0.2575 l 1.78303,0.1117 c 0,0 0.66858,1.4481 1.11434,1.8937 0.44579,0.4455 2.45171,0.4453 2.45171,0.4453 l 2.45207,-0.2226 c 0,0 2.45162,1.8935 3.56606,1.4479 1.11446,-0.4456 0.55737,-0.3342 1.22603,-0.7797 0.0947,-0.063 0.22542,-0.09 0.37582,-0.094 l -0.19574,1.627 -0.40854,5.0959 -1.22206,1.6396 -2.57248,1.9195 -1.37666,0.434 -3.04325,0.7608 -1.92055,0.797 -1.55711,1.1588 -2.09335,-0.6091 1.64695,-2.2628 c 0,0 -0.23658,-3.1506 -0.31541,-3.4657 -0.0788,-0.315 0.55154,-3.4659 0.55154,-3.9386 0,-0.4726 -0.47296,-2.8352 -0.47296,-2.8352 l -3.54604,0.8668 -5.34035,-2.4137 c 0.37387,-0.07 0.67848,-0.053 0.76982,0.1293 0.23641,0.4726 3.62499,0.4726 3.62499,0.4726 0,0 1.02434,-2.1266 1.33954,-2.2054 0.31522,-0.078 2.6005,0.2361 2.6005,0.2361 0,0 0.0951,-0.2412 0.18809,-0.4664 z m 26.97498,8.4662 0.0982,0.2881 1.50435,1.9494 0.34016,0.3739 c -0.0969,0.098 -0.16797,0.1642 -0.31505,0.2903 l -1.86416,-2.3629 -0.12406,-0.4698 z m -0.81748,0.2139 0.64503,1.3559 -0.0789,13.9023 -0.19718,1.8902 -0.23611,-2.0478 0.0786,-12.5925 z m -45.45901,4.564 0.12187,0.6909 1.18166,0.9448 0.0793,1.1026 0.23612,0.8667 1.42431,-0.4745 c 0.12831,0.077 0.22119,0.1307 0.22119,0.1307 0,0 0.2129,-0.077 0.45876,-0.1871 l 0.9692,0.4526 2.12755,0.8659 2.04934,-0.5515 1.26096,0.9459 0.10514,0.02 -1.19184,0.4323 -3.26045,1.7745 -2.8992,0.036 -3.1877,0.2172 -2.5361,-2.2815 -0.86696,-1.0303 1.69754,-1.286 -0.7309,-1.1828 1.4607,-0.7597 z m 42.91235,0.6909 0.0786,2.993 -0.23611,8.9792 -0.47331,6.0647 -0.4726,-1.7325 c 0,0 0.31506,-12.9178 0.31506,-13.2328 0,-0.315 0.78837,-3.0716 0.78837,-3.0716 z m 4.60837,0.3213 0.577,0.1599 -0.175,16.4879 c -0.13662,0.093 -0.27328,0.1864 -0.4122,0.2805 z m 1.63968,0.4583 1.9693,1.6237 0.68395,1.7572 0.81967,3.4824 1.23003,6.9658 0.32924,1.1115 c -0.61794,0.3223 -2.19819,1.1281 -2.7573,1.2234 -0.69479,0.1185 -1.10114,-0.1693 -2.00604,-0.4438 -0.0599,-0.018 -0.11944,-0.03 -0.17863,-0.037 z m -53.37986,3.3379 0.32852,0.5407 1.88417,1.9183 -1.59021,-0.09 0.20773,-0.1997 -0.56754,-0.7607 -0.56828,-0.8444 z m 61.67616,0.2773 1.00302,0.6126 0.83602,1.0584 c 0,0 0.1372,1.3966 -0.0127,1.7554 l -0.70651,-0.3824 -1.27697,-2.7555 z m -3.59515,0.4201 1.58947,0.5825 0.22119,0.037 1.26532,3.5405 1.22933,2.8683 0.20517,2.9697 0.13679,0.5473 -1.9842,0.096 -0.71452,-1.9747 -1.7423,-7.4763 z m -14.154,1.0886 0.86986,32.1574 0.2896,19.2656 -1.0143,-12.1676 -0.7247,-26.3635 z m 19.48415,6.8607 0.61484,1.8445 0.48532,1.4549 -0.88188,-0.3871 z m -43.4817,2.6845 -0.36236,1.9559 -1.08633,0.7971 -3.15495,1.9885 -1.37411,-0.2659 0.47113,-0.2747 2.39096,-2.969 z m -5.33163,0.073 0.65595,0.1008 -1.62404,0.9961 z m -0.75526,2.3175 -1.66661,1.9555 -1.12453,0.4533 -0.47259,-0.9452 -1.35046,-0.8301 0.42238,-0.2308 0.20701,0.031 2.31819,0.1452 z m 24.77101,0.6505 0.58502,13.339 -0.44568,-1.1972 -0.50169,-11.2505 z m -20.79204,0.9547 -0.38708,0.5675 -0.31507,1.4185 -0.85058,0.9673 -1.19839,0.4494 -1.10343,-0.3155 1.04048,-1.436 z m 8.13368,11.553 -2.0497,2.6119 -1.48579,3.6359 -2.58523,2.8464 -0.94772,-0.8611 -0.93536,0.043 0.21538,-0.5424 1.17838,-3.9433 3.89493,-1.9464 z m 23.61448,2.3623 c 0.0157,0.011 0.0282,0.02 0.0404,0.029 l 0.51551,4.2825 0.17827,12.4131 -0.57954,6.2284 c 0,0 -0.57978,-6.5184 -0.7247,-7.2427 -0.14283,-0.7137 0.54968,-15.2811 0.57009,-15.71 z m -32.68351,1.8372 -0.51588,0.7989 -0.0841,-0.073 -1.33954,0.5515 -0.13934,-0.6264 0.0291,-0.036 z m 1.12744,0.2558 -0.92589,3.7858 -0.88042,-0.9533 0.54826,-1.3994 z m 24.75429,1.4493 0.43473,18.3968 0.43478,22.0173 -0.57955,8.4015 -1.01466,-11.0089 -0.14481,-21.583 -0.14516,-9.56 z m -19.83559,1.8792 -0.40019,3.3677 -0.57191,1.886 -1.3399,-0.1572 0.23647,-1.3392 -0.88551,-0.6126 z m 11.27881,2.1926 -1.30935,36.2292 -0.27831,-0.919 0.91934,-33.8622 z m 5.36836,2.0123 1.15908,10.5744 -0.57954,14.4851 -0.8695,-12.602 z m -3.66865,29.8898 0.66868,3.0072 0.44566,15.3717 0.33434,5.0129 -1.22566,-4.5673 -0.22302,-12.6983 z" /></g></g></svg>
